<svg xmlns="http://www.w3.org/2000/svg" viewBox="0 0 248.68 103.32">
  <defs>
    <style>
      .cls-1 {
        fill: #eef4df;
      }
    </style>
  </defs>
  <g id="Calque_2" data-name="Calque 2">
    <g id="Calque_1-2" data-name="Calque 1">
      <g>
        <g>
          <polygon class="cls-1" points="9.95 91.53 9.41 9.95 34.62 9.95 34.62 0 0 0 0.54 101.48 35.16 101.48 35.16 91.53 9.95 91.53"/>
          <polygon class="cls-1" points="238.73 93.37 239.27 11.79 214.06 11.79 214.06 1.84 248.68 1.84 248.14 103.32 213.52 103.32 213.52 93.37 238.73 93.37"/>
        </g>
        <g>
          <path class="cls-1" d="M55,17.38l-.64,4.75H46.23V48.67h-6V22.13H31.79V17.38Z"/>
          <path class="cls-1" d="M76.87,44.39a2.68,2.68,0,0,0,1.38,1L77,49.26a7.44,7.44,0,0,1-3.32-1,5,5,0,0,1-2-2.49,7.74,7.74,0,0,1-3.06,2.7,9.44,9.44,0,0,1-4.1.88,7.75,7.75,0,0,1-5.66-2A7.13,7.13,0,0,1,56.83,42a6.92,6.92,0,0,1,2.83-6Q62.5,34,67.74,34h3V32.59a4.11,4.11,0,0,0-1.06-3.23,5.14,5.14,0,0,0-3.42-.93,20.06,20.06,0,0,0-6.34,1.27l-1.36-3.94A24.15,24.15,0,0,1,67.24,24q9.2,0,9.2,8.24v10A3.81,3.81,0,0,0,76.87,44.39Zm-6.14-2.2V37.35h-2.4q-5.61,0-5.61,4.16a3.84,3.84,0,0,0,.86,2.68,3.24,3.24,0,0,0,2.53,1A5.13,5.13,0,0,0,70.73,42.19Z"/>
          <path class="cls-1" d="M103.49,26a7.59,7.59,0,0,1,1.79,5.37V48.67h-5.8V32.23a4.67,4.67,0,0,0-.74-3,2.77,2.77,0,0,0-2.2-.86,4.27,4.27,0,0,0-2.69.93A10.72,10.72,0,0,0,91.51,32V48.67H85.72v-24h5l.46,3.12A8.88,8.88,0,0,1,98.49,24,6.49,6.49,0,0,1,103.49,26Z"/>
          <path class="cls-1" d="M128.17,24.72a11.38,11.38,0,0,1,3.55,2.12l-2.58,3.49A9.33,9.33,0,0,0,126.79,29a7.39,7.39,0,0,0-2.49-.41q-5.4,0-5.39,8.2,0,4.15,1.4,6a4.72,4.72,0,0,0,4,1.84,6.52,6.52,0,0,0,2.33-.41,15.39,15.39,0,0,0,2.51-1.31l2.58,3.67A11.92,11.92,0,0,1,124,49.35a11.46,11.46,0,0,1-6-1.52,9.91,9.91,0,0,1-3.89-4.32,15,15,0,0,1-1.36-6.61,15.74,15.74,0,0,1,1.36-6.73A10.41,10.41,0,0,1,118,25.64a10.85,10.85,0,0,1,5.93-1.6A12.29,12.29,0,0,1,128.17,24.72Z"/>
          <path class="cls-1" d="M152.42,24.4l-1,5.61a8.82,8.82,0,0,0-2.13-.27,4.08,4.08,0,0,0-3.35,1.52A11.84,11.84,0,0,0,144,35.9V48.67H138.2v-24h5l.55,4.7a8.55,8.55,0,0,1,2.49-4A5.64,5.64,0,0,1,150,24.08,8.65,8.65,0,0,1,152.42,24.4Z"/>
          <path class="cls-1" d="M174.85,44.39a2.76,2.76,0,0,0,1.38,1L175,49.26a7.44,7.44,0,0,1-3.33-1,5.1,5.1,0,0,1-2-2.49,7.65,7.65,0,0,1-3.05,2.7,9.48,9.48,0,0,1-4.1.88,7.73,7.73,0,0,1-5.66-2A7.13,7.13,0,0,1,154.82,42a6.92,6.92,0,0,1,2.83-6c1.88-1.37,4.58-2.06,8.08-2.06h3V32.59a4.11,4.11,0,0,0-1.07-3.23,5.14,5.14,0,0,0-3.42-.93,20,20,0,0,0-6.33,1.27l-1.36-3.94A24.07,24.07,0,0,1,165.23,24q9.2,0,9.19,8.24v10A3.81,3.81,0,0,0,174.85,44.39Zm-6.13-2.2V37.35h-2.4q-5.62,0-5.62,4.16a3.89,3.89,0,0,0,.86,2.68,3.27,3.27,0,0,0,2.54,1A5.13,5.13,0,0,0,168.72,42.19Z"/>
          <path class="cls-1" d="M190.93,19.67a3.55,3.55,0,0,0-.75,2.51v2.54h5.75l-.63,4.16h-5.12V48.67h-5.8V28.88h-3.89V24.72h3.89V22.09a7.24,7.24,0,0,1,2.2-5.5,8.61,8.61,0,0,1,6.23-2.11,14.56,14.56,0,0,1,6.2,1.41l-1.68,3.89a9.29,9.29,0,0,0-3.94-.91A3.25,3.25,0,0,0,190.93,19.67Z"/>
          <path class="cls-1" d="M215.4,47.54a9.62,9.62,0,0,1-2.83,1.36,11.49,11.49,0,0,1-3.19.45,7.08,7.08,0,0,1-5.37-2q-1.83-2-1.83-5.82V28.88h-3.76V24.72h3.76v-5.3l5.79-.68v6h5.57L213,28.88h-5v12.5a4.14,4.14,0,0,0,.61,2.53,2.3,2.3,0,0,0,1.93.77,5.86,5.86,0,0,0,2.85-.86Z"/>
        </g>
        <g>
          <path class="cls-1" d="M89.88,68.26,84.44,92.13H78.78L74.62,72l-4.3,20.11H64.79L59.22,68.26h4.17l4.3,21,4.71-21h4.66l4.48,21,4.35-21Z"/>
          <path class="cls-1" d="M120.92,71.07c1.85,2.23,2.78,5.27,2.78,9.1a15.82,15.82,0,0,1-1.27,6.55,10,10,0,0,1-3.66,4.39,10.28,10.28,0,0,1-5.71,1.56,9.66,9.66,0,0,1-7.83-3.35c-1.88-2.23-2.81-5.27-2.81-9.1a15.82,15.82,0,0,1,1.27-6.55,9.91,9.91,0,0,1,3.66-4.39,10.33,10.33,0,0,1,5.75-1.56A9.62,9.62,0,0,1,120.92,71.07Zm-14,9.15q0,9.09,6.16,9.1t6.16-9.15q0-9.11-6.12-9.1T106.9,80.22Z"/>
          <path class="cls-1" d="M152.36,68l-.77,4.08a8.61,8.61,0,0,0-2.08-.27,4.43,4.43,0,0,0-3.58,1.63,12.07,12.07,0,0,0-2.12,5.07V92.13h-4.17V68.26h3.58l.4,4.85a9.06,9.06,0,0,1,2.59-4,5.72,5.72,0,0,1,3.8-1.36A9.71,9.71,0,0,1,152.36,68Z"/>
          <path class="cls-1" d="M170.34,58.17v34h-4.17V58.66Zm13.72,10.09-8.79,10.55,9.78,13.32h-5l-9.46-13,8.78-10.83Z"/>
        </g>
        <g>
          <path class="cls-1" d="M47,57.17A69.35,69.35,0,0,0,49.65,67.8l-2.53-.31a55.51,55.51,0,0,1-4.21-10.73Zm-6.7,0A64,64,0,0,0,43,67.8l-2.54-.31a55.51,55.51,0,0,1-4.21-10.73Z"/>
          <path class="cls-1" d="M205.77,58.17a55.12,55.12,0,0,1-4.21,10.72l-2.53.32a69.19,69.19,0,0,0,2.67-10.64Zm6.7,0a55.12,55.12,0,0,1-4.21,10.72l-2.54.32a63.86,63.86,0,0,0,2.68-10.64Z"/>
        </g>
      </g>
    </g>
  </g>
</svg>
